<?xml version="1.0" standalone="no"?>
<!DOCTYPE svg PUBLIC "-//W3C//DTD SVG 20010904//EN"
 "http://www.w3.org/TR/2001/REC-SVG-20010904/DTD/svg10.dtd">
<svg version="1.0" xmlns="http://www.w3.org/2000/svg"
 width="225.000000pt" height="225.000000pt" viewBox="0 0 225.000000 225.000000"
 preserveAspectRatio="xMidYMid meet">
<metadata>
Created by potrace 1.14, written by Peter Selinger 2001-2017
</metadata>
<g transform="translate(0.000000,225.000000) scale(0.100000,-0.100000)"
fill="#000000" stroke="none">
<path d="M381 2162 c-19 -9 -48 -34 -65 -55 l-31 -39 0 -943 0 -943 31 -39
c62 -77 13 -73 809 -73 796 0 747 -4 809 73 l31 39 3 776 2 776 -222 223 -223
223 -555 0 c-509 0 -558 -1 -589 -18z m1099 -198 c0 -165 9 -197 68 -242 34
-26 39 -27 194 -30 l158 -3 0 -725 c0 -604 -2 -730 -14 -759 -29 -67 0 -65
-761 -65 -761 0 -732 -2 -761 65 -12 29 -14 177 -14 918 0 632 3 893 11 916 7
18 26 41 43 52 29 18 58 19 554 19 l522 0 0 -146z m258 -202 c-169 -5 -188 14
-188 185 l0 108 145 -145 145 -145 -102 -3z"/>
<path d="M500 1745 c-6 -8 -9 -23 -5 -35 6 -19 13 -20 239 -20 191 0 236 3
245 14 9 11 10 20 1 35 -10 20 -19 21 -239 21 -188 0 -231 -3 -241 -15z"/>
<path d="M500 1535 c-6 -8 -10 -22 -8 -32 3 -16 16 -18 138 -18 135 0 135 0
138 24 2 13 -2 28 -10 32 -7 5 -65 9 -129 9 -90 0 -119 -3 -129 -15z"/>
<path d="M850 1536 c-6 -8 -9 -24 -5 -36 6 -20 12 -20 456 -20 407 0 450 2
456 16 3 9 2 24 -4 33 -9 14 -58 16 -450 19 -376 2 -442 0 -453 -12z"/>
<path d="M502 1328 c-18 -18 -14 -46 7 -58 13 -6 149 -10 375 -10 309 0 357 2
370 16 20 19 20 29 0 48 -13 14 -62 16 -378 16 -268 0 -365 -3 -374 -12z"/>
<path d="M1345 1324 c-14 -14 -14 -19 -2 -38 14 -20 23 -21 196 -24 187 -3
221 3 221 36 0 38 -18 42 -211 42 -159 0 -190 -2 -204 -16z"/>
<path d="M508 1119 c-24 -13 -23 -46 1 -59 12 -6 106 -10 235 -10 182 0 217 2
230 16 9 8 16 19 16 24 0 5 -7 16 -16 24 -13 14 -48 16 -232 16 -129 0 -224
-5 -234 -11z"/>
<path d="M1066 1114 c-9 -8 -16 -19 -16 -24 0 -5 7 -16 16 -24 13 -14 58 -16
335 -16 202 0 327 4 340 10 10 6 19 19 19 30 0 11 -9 24 -19 30 -13 6 -138 10
-340 10 -277 0 -322 -2 -335 -16z"/>
<path d="M508 909 c-21 -12 -23 -40 -6 -57 9 -9 121 -12 444 -12 380 0 434 2
448 16 20 19 20 29 0 48 -14 14 -67 16 -442 16 -271 0 -433 -4 -444 -11z"/>
<path d="M1498 909 c-22 -13 -23 -55 -2 -63 30 -12 239 -7 252 6 18 18 14 46
-7 58 -25 13 -220 13 -243 -1z"/>
<path d="M493 684 c-3 -9 -2 -24 4 -33 8 -13 35 -16 154 -19 177 -3 191 -1
187 36 l-3 27 -168 3 c-148 2 -168 1 -174 -14z"/>
<path d="M921 686 c-9 -11 -10 -20 -1 -35 10 -20 19 -21 205 -21 186 0 195 1
205 21 24 44 4 49 -205 49 -155 0 -195 -3 -204 -14z"/>
<path d="M1417 693 c-13 -12 -7 -51 9 -57 9 -3 82 -6 164 -6 158 0 179 6 165
50 -6 19 -14 20 -169 20 -89 0 -166 -3 -169 -7z"/>
<path d="M495 470 c-15 -47 2 -50 246 -50 208 0 229 2 238 18 6 11 6 24 0 35
-9 15 -33 17 -244 17 -227 0 -234 -1 -240 -20z"/>
<path d="M1061 476 c-9 -11 -10 -20 -1 -36 11 -20 17 -20 207 -18 170 3 197 5
206 20 8 12 7 21 -2 32 -19 23 -392 24 -410 2z"/>
<path d="M1554 476 c-3 -8 -4 -23 -2 -33 3 -16 16 -18 94 -21 99 -3 122 7 109
48 -6 18 -14 20 -101 20 -73 0 -96 -3 -100 -14z"/>
</g>
</svg>
